# xmcd CD database file
#
# Track frame offsets:
#	150
#	12666
#	25160
#	43510
#	63985
#	77848
#	97271
#	116016
#	128684
#	152304
#	175659
#	200333
#	221971
#	235576
#	254631
#	271064
#	285557
#	302541
#	318229
#
# Disc length: 4540 seconds
#
# Revision: 0
# Processed by: cddbd v1.5.2PL0 Copyright (c) Steve Scherf et al.
# Submitted via: CDex 1.51
#
DISCID=0211ba13
DTITLE=Steve Earle - Guitar Town - 30th Anniversary
DYEAR=2016
DGENRE=Country
TTITLE0=Guitar Town [live at Park West, Chicago, IL - August 15, 1986]
TTITLE1=Sweet Little '66 [live at Park West, Chicago, IL - August 15, 1986]
TTITLE2=Goodbye's All We've Got Left [live at Park West, Chicago, IL - August 15, 1986]
TTITLE3=Hillbilly Highway [live at Park West, Chicago, IL - August 15, 1986]
TTITLE4=My Old Friend The Blues [live at Park West, Chicago, IL - August 15, 1986]
TTITLE5=Good Ol' Boy (Gettin' Tough) [live at Park West, Chicago, IL - August 15, 1986]
TTITLE6=Someday [live at Park West, Chicago, IL - August 15, 1986]
TTITLE7=Think It Over [live at Park West, Chicago, IL - August 15, 1986]
TTITLE8=Little Rock 'N' Roller [live at Park West, Chicago, IL - August 15, 1986]
TTITLE9=State Trooper [live at Park West, Chicago, IL - August 15, 1986]
TTITLE10=The Week Of Living Dangerously [live at Park West, Chicago, IL - August 15, 1986]
TTITLE11=Angry Young Man [live at Park West, Chicago, IL - August 15, 1986]
TTITLE12=Nowhere Road [live at Park West, Chicago, IL - August 15, 1986]
TTITLE13=Fearless Heart [live at Park West, Chicago, IL - August 15, 1986]
TTITLE14=I Love You Too Much [live at Park West, Chicago, IL - August 15, 1986]
TTITLE15=San Antonio Girl [live at Park West, Chicago, IL - August 15, 1986]
TTITLE16=The Devil's Right Hand [live at Park West, Chicago, IL - August 15, 1986]
TTITLE17=Down The Road [live at Park West, Chicago, IL - August 15, 1986]
TTITLE18=No. 29 [live at Park West, Chicago, IL - August 15, 1986]
EXTD=YEAR: 2016
EXTT0=
EXTT1=
EXTT2=
EXTT3=
EXTT4=
EXTT5=
EXTT6=
EXTT7=
EXTT8=
EXTT9=
EXTT10=
EXTT11=
EXTT12=
EXTT13=
EXTT14=
EXTT15=
EXTT16=
EXTT17=
EXTT18=
PLAYORDER=
